<svg xmlns="http://www.w3.org/2000/svg" width="48" height="17" viewBox="0 0 48 17" fill="none">
  <g clip-path="url(#clip0_9852_2122)">
    <path d="M3.17546 11.8628C3.37398 12.3993 3.64883 12.8581 4.00006 13.2391C4.35129 13.6201 4.76739 13.9117 5.24837 14.1139C5.7294 14.316 6.25239 14.4171 6.8174 14.4171C7.36716 14.4171 7.8825 14.3121 8.36352 14.1021C8.84455 13.8922 9.26446 13.5967 9.62329 13.2157C9.98212 12.8347 10.2608 12.3799 10.4593 11.8511C10.6579 11.3224 10.7571 10.7315 10.7571 10.0783V0.000976562H13.1621V16.3299H10.78V14.8136C10.2456 15.389 9.61564 15.8322 8.89032 16.1433C8.16495 16.4543 7.38241 16.6098 6.54255 16.6098C5.68738 16.6098 4.88954 16.4581 4.14892 16.1549C3.40834 15.8517 2.76695 15.4202 2.2249 14.8603C1.68285 14.3004 1.25525 13.6279 0.94223 12.8425C0.629164 12.0572 0.472656 11.1824 0.472656 10.2182V0.000976562H2.8777V10.0783C2.8777 10.7315 2.97693 11.3262 3.17546 11.8628ZM17.3078 0.000976562V5.94935C17.8422 5.40506 18.4607 4.97355 19.1631 4.65472C19.8655 4.33589 20.6291 4.1765 21.4536 4.1765C22.3088 4.1765 23.1104 4.33976 23.8587 4.66633C24.6069 4.99291 25.2558 5.43613 25.8056 5.99601C26.3553 6.55589 26.7905 7.21678 27.1112 7.97879C27.4319 8.74084 27.5922 9.54951 27.5922 10.4048C27.5922 11.2601 27.4319 12.0649 27.1112 12.8191C26.7905 13.5734 26.3553 14.2305 25.8056 14.7902C25.2558 15.3501 24.6069 15.7933 23.8587 16.1199C23.1104 16.4465 22.3087 16.6097 21.4536 16.6097C20.629 16.6097 19.8617 16.4504 19.1517 16.1315C18.4416 15.8127 17.8193 15.3812 17.2849 14.8369V16.3298H14.9944V0.000976562H17.3078ZM17.5712 12.0144C17.7773 12.5121 18.0637 12.9475 18.4301 13.3207C18.7966 13.694 19.2242 13.9895 19.7128 14.2072C20.2015 14.4249 20.7283 14.5338 21.2933 14.5338C21.8431 14.5338 22.3622 14.4249 22.8508 14.2072C23.3395 13.9895 23.7632 13.694 24.1221 13.3207C24.4809 12.9475 24.7672 12.5121 24.981 12.0144C25.1948 11.5167 25.3017 10.9803 25.3017 10.4048C25.3017 9.82942 25.1948 9.28901 24.981 8.78358C24.7672 8.27816 24.4809 7.83886 24.1221 7.46562C23.7632 7.09244 23.3395 6.80081 22.8508 6.59089C22.3621 6.38096 21.843 6.27593 21.2933 6.27593C20.7436 6.27593 20.2244 6.38091 19.7358 6.59089C19.2471 6.80086 18.8196 7.09244 18.4531 7.46562C18.0866 7.83886 17.7965 8.27816 17.5827 8.78358C17.3689 9.28901 17.262 9.82942 17.262 10.4048C17.262 10.9803 17.365 11.5167 17.5712 12.0144ZM28.8976 8.00217C29.2029 7.2557 29.6229 6.59868 30.1573 6.03106C30.6917 5.46344 31.3255 5.01634 32.0585 4.68977C32.7915 4.36319 33.5855 4.19993 34.4406 4.19993C35.2805 4.19993 36.0593 4.35545 36.777 4.66644C37.4946 4.97748 38.1131 5.40904 38.6323 5.96112C39.1515 6.51315 39.5562 7.16635 39.8462 7.92056C40.1364 8.67483 40.2814 9.49516 40.2814 10.3816V11.1514H30.7758C30.8522 11.6335 31.0049 12.0806 31.2339 12.4927C31.463 12.9048 31.7493 13.2625 32.0928 13.5657C32.4364 13.869 32.8258 14.1062 33.261 14.2772C33.6962 14.4482 34.1581 14.5338 34.6468 14.5338C36.0364 14.5338 37.1588 13.9506 38.0139 12.7842L39.6859 14.0439C39.1057 14.837 38.388 15.4591 37.5329 15.91C36.6777 16.361 35.7157 16.5865 34.6468 16.5865C33.7764 16.5865 32.9633 16.4309 32.2074 16.12C31.4516 15.809 30.795 15.3735 30.2376 14.8136C29.6803 14.2537 29.2412 13.5967 28.9206 12.8425C28.5999 12.0883 28.4395 11.2679 28.4395 10.3815C28.4394 9.54177 28.5922 8.74864 28.8976 8.00217ZM32.1157 7.08072C31.4668 7.6328 31.0354 8.36761 30.8216 9.28513H37.9452C37.7466 8.36761 37.3229 7.6328 36.6739 7.08072C36.0249 6.52869 35.2652 6.25265 34.3948 6.25265C33.5244 6.25265 32.7647 6.52869 32.1157 7.08072ZM44.6104 7.34897C44.1217 7.89326 43.8774 8.63193 43.8774 9.56505V16.3299H41.5639V4.43313H43.8544V5.90274C44.1446 5.42065 44.5225 5.03962 44.9883 4.75971C45.454 4.47974 46.0075 4.33976 46.6489 4.33976H47.4506V6.53251H46.4886C45.7251 6.53256 45.099 6.80468 44.6104 7.34897Z" fill="#D0D5DD"/>
  </g>
  <defs>
    <clipPath id="clip0_9852_2122">
      <rect width="46.9779" height="16.6111" fill="white" transform="translate(0.472656)"/>
    </clipPath>
  </defs>
</svg>