<svg xmlns="http://www.w3.org/2000/svg" width="65" height="22" viewBox="0 0 65 22" fill="none">
  <path d="M27.5608 11.1893C27.5608 14.2483 25.211 16.5024 22.3273 16.5024C19.4436 16.5024 17.0938 14.2483 17.0938 11.1893C17.0938 8.10868 19.4436 5.8761 22.3273 5.8761C25.211 5.8761 27.5608 8.10868 27.5608 11.1893ZM25.2698 11.1893C25.2698 9.27767 23.9079 7.96974 22.3273 7.96974C20.7466 7.96974 19.3847 9.27767 19.3847 11.1893C19.3847 13.0817 20.7466 14.4088 22.3273 14.4088C23.9079 14.4088 25.2698 13.0793 25.2698 11.1893Z" fill="#D0D5DD"/>
  <path d="M38.8519 11.1893C38.8519 14.2483 36.5021 16.5024 33.6183 16.5024C30.7346 16.5024 28.3848 14.2483 28.3848 11.1893C28.3848 8.11107 30.7346 5.8761 33.6183 5.8761C36.5021 5.8761 38.8519 8.10868 38.8519 11.1893ZM36.5609 11.1893C36.5609 9.27767 35.199 7.96974 33.6183 7.96974C32.0377 7.96974 30.6758 9.27767 30.6758 11.1893C30.6758 13.0817 32.0377 14.4088 33.6183 14.4088C35.199 14.4088 36.5609 13.0793 36.5609 11.1893Z" fill="#D0D5DD"/>
  <path d="M49.6713 6.19709V15.7359C49.6713 19.6597 47.3991 21.2622 44.7129 21.2622C42.1844 21.2622 40.6625 19.5399 40.0886 18.1313L42.0832 17.2857C42.4384 18.1505 43.3087 19.171 44.7106 19.171C46.43 19.171 47.4955 18.0906 47.4955 16.0569V15.2927H47.4156C46.9028 15.9371 45.9149 16.5 44.6683 16.5C42.0597 16.5 39.6699 14.186 39.6699 11.2084C39.6699 8.20929 42.0597 5.8761 44.6683 5.8761C45.9125 5.8761 46.9005 6.43903 47.4156 7.06425H47.4955V6.19949H49.6713V6.19709ZM47.6578 11.2084C47.6578 9.33756 46.4324 7.96974 44.8729 7.96974C43.2922 7.96974 41.968 9.33756 41.968 11.2084C41.968 13.0601 43.2922 14.4088 44.8729 14.4088C46.4324 14.4088 47.6578 13.0601 47.6578 11.2084Z" fill="#D0D5DD"/>
  <path d="M53.258 0.606079V16.1767H51.0234V0.606079H53.258Z" fill="#D0D5DD"/>
  <path d="M61.9664 12.938L63.7446 14.1453C63.1707 15.0101 61.7876 16.5001 59.3978 16.5001C56.4341 16.5001 54.2207 14.1669 54.2207 11.1869C54.2207 8.02731 56.4529 5.87378 59.1414 5.87378C61.8487 5.87378 63.173 8.06803 63.6058 9.25379L63.8434 9.85745L56.8692 12.7991C57.4032 13.8651 58.2335 14.4089 59.3978 14.4089C60.5645 14.4089 61.3736 13.8244 61.9664 12.938ZM56.4929 11.0264L61.1549 9.05497C60.8985 8.39142 60.127 7.9291 59.219 7.9291C58.0547 7.9291 56.4341 8.97592 56.4929 11.0264Z" fill="#D0D5DD"/>
  <path d="M8.636 9.80707V7.55293H16.0947C16.1676 7.94579 16.2052 8.41051 16.2052 8.91356C16.2052 10.6048 15.7513 12.696 14.2882 14.186C12.8652 15.6951 11.047 16.5 8.63835 16.5C4.17396 16.5 0.419922 12.7966 0.419922 8.25001C0.419922 3.7034 4.17396 0 8.63835 0C11.1081 0 12.8675 0.986935 14.1894 2.2733L12.6276 3.8639C11.6797 2.95841 10.3954 2.25414 8.636 2.25414C5.37591 2.25414 2.82618 4.92988 2.82618 8.25001C2.82618 11.5701 5.37591 14.2459 8.636 14.2459C10.7506 14.2459 11.9549 13.3811 12.7264 12.5954C13.3521 11.9582 13.7637 11.0479 13.926 9.80467L8.636 9.80707Z" fill="#D0D5DD"/>
</svg>