<svg xmlns="http://www.w3.org/2000/svg" width="76" height="23" viewBox="0 0 76 23" fill="none">
  <path d="M17.6065 5.64229V12.7596C17.6065 12.8749 17.5615 12.9856 17.4814 13.0672C17.4013 13.1487 17.2927 13.1946 17.1794 13.1946H14.9733C14.86 13.1945 14.7514 13.1487 14.6713 13.0671C14.5912 12.9855 14.5462 12.8749 14.5461 12.7596V1.18295C14.5461 1.06758 14.5911 0.956941 14.6712 0.875362C14.7513 0.793784 14.86 0.747953 14.9733 0.747953H17.0148C17.1281 0.747953 17.2367 0.793784 17.3168 0.875362C17.3969 0.956941 17.4419 1.06758 17.4419 1.18295V2.81325C17.4419 2.81325 18.1717 0.487682 20.3375 0.487682C20.3375 0.487682 22.4798 0.223958 23.3508 2.64542C23.3508 2.64542 24.0806 0.487682 26.2935 0.487682C26.2935 0.487682 29.5844 0.288402 29.5844 3.75633L29.6094 5.66626V12.7836C29.6094 12.8989 29.5644 13.0096 29.4843 13.0911C29.4042 13.1727 29.2956 13.2186 29.1823 13.2186H26.976C26.8627 13.2185 26.7541 13.1727 26.674 13.0911C26.5939 13.0095 26.5489 12.8989 26.5488 12.7836L26.5287 5.01894C26.5914 3.26072 25.1947 3.38865 25.1947 3.38865C23.437 3.42068 23.6062 5.66626 23.6062 5.66626V12.7836C23.6062 12.8989 23.5612 13.0096 23.4811 13.0911C23.401 13.1727 23.2923 13.2186 23.179 13.2186H20.9729C20.8597 13.2185 20.751 13.1727 20.6709 13.0911C20.5909 13.0095 20.5458 12.8989 20.5458 12.7836V5.19463C20.5458 5.19463 20.6748 3.37254 19.1052 3.37254C19.1054 3.37254 17.5517 3.16482 17.6065 5.64229ZM74.474 5.621V12.7381C74.4739 12.8535 74.4289 12.9641 74.3488 13.0456C74.2687 13.1272 74.1601 13.173 74.0469 13.1731L71.7524 13.2184C71.6392 13.2183 71.5305 13.1725 71.4504 13.0909C71.3704 13.0093 71.3253 12.8987 71.3253 12.7834V5.19463C71.3253 5.19463 71.4543 3.37254 69.8849 3.37254C69.8849 3.37254 68.386 3.29735 68.386 6.1542V12.7594C68.386 12.8747 68.3409 12.9854 68.2608 13.0669C68.1807 13.1485 68.0721 13.1943 67.9589 13.1944H65.7526C65.6393 13.1943 65.5307 13.1485 65.4506 13.0669C65.3705 12.9854 65.3255 12.8747 65.3254 12.7594V1.18295C65.3255 1.0676 65.3705 0.956986 65.4506 0.875418C65.5307 0.793851 65.6393 0.748004 65.7526 0.747953H67.7941C67.9074 0.747953 68.016 0.793784 68.0961 0.875362C68.1762 0.956941 68.2212 1.06758 68.2212 1.18295V2.81325C68.2212 2.81325 68.951 0.487682 71.1168 0.487682C71.1168 0.487682 73.4369 0.129209 74.2182 2.60035C74.2184 2.60016 74.474 3.10996 74.474 5.621ZM58.545 0.439732C55.7238 0.439732 53.4365 2.8612 53.4365 6.93693C53.4365 10.5253 55.2021 13.4341 58.545 13.4341C61.6995 13.4341 63.6534 10.5253 63.6534 6.93693C63.6534 2.93312 61.3663 0.439732 58.545 0.439732ZM60.3256 7.08078C60.3256 8.61518 60.1373 9.43033 60.1373 9.43033C59.8693 11.0524 58.7131 11.0547 58.5427 11.046C58.3587 11.0535 57.1927 11.0366 56.9515 9.43033C56.9515 9.43033 56.7632 8.61518 56.7632 7.08078V6.82512C56.7632 5.29072 56.9515 4.47557 56.9515 4.47557C57.1927 2.86925 58.3589 2.85238 58.5427 2.85966C58.7131 2.85103 59.8693 2.85314 60.1373 4.47557C60.1373 4.47557 60.3256 5.29072 60.3256 6.82512V7.08078ZM52.156 2.79714V1.13616C52.156 1.0208 52.111 0.910187 52.0309 0.828619C51.9508 0.747052 51.8422 0.701205 51.7289 0.701154H44.4367C44.3234 0.701154 44.2148 0.746985 44.1347 0.828563C44.0546 0.910142 44.0096 1.02079 44.0096 1.13616V2.78429C44.0096 2.89964 44.0546 3.01026 44.1347 3.09182C44.2148 3.17339 44.3234 3.21924 44.4367 3.21929H48.2404L43.7382 9.87089C43.7382 9.87089 43.5608 10.1406 43.5666 10.4384V12.4617C43.5666 12.4617 43.5372 13.1555 44.3098 12.7529C44.3098 12.7529 45.6819 11.9086 47.9828 11.9086C47.9828 11.9086 50.255 11.8798 51.7699 12.8256C51.7699 12.8256 52.3988 13.1167 52.3988 12.4765V10.7154C52.3988 10.7154 52.4558 10.2493 51.8556 9.95835C51.8556 9.95835 50.1121 8.98324 47.8255 9.1432L52.156 2.79714ZM12.8434 11.1243L12.1528 10.0537C11.933 9.65396 11.9489 9.2063 11.9489 9.2063V4.26766C12.043 0.000127584 7.39746 0.367807 7.39746 0.367807C3.26774 0.367807 2.65773 3.64086 2.65773 3.64086C2.4856 4.29893 2.98618 4.31485 2.98618 4.31485L5.00415 4.52333C5.00415 4.52333 5.34823 4.6035 5.47347 4.18634C5.47347 4.18634 5.73921 2.75839 7.22533 2.75839C8.84234 2.75839 8.82557 4.17176 8.82557 4.17176V5.35497C5.59758 5.46487 4.10167 6.37746 4.10167 6.37746C2.10856 7.52825 2.23399 9.81392 2.23399 9.81392C2.23399 13.5379 5.71811 13.3779 5.71811 13.3779C7.94663 13.3779 9.26495 11.7158 9.26495 11.7158C9.65724 12.4193 10.3793 13.0902 10.3793 13.0902C10.7405 13.4892 11.117 13.1543 11.117 13.1543L12.7493 11.7319C13.1101 11.4599 12.8434 11.1243 12.8434 11.1243ZM6.80572 11.0783C5.75747 11.0783 5.36782 10.0174 5.54183 8.9748C5.71604 7.93218 6.62078 7.11281 8.82576 7.13679V7.77069C8.90392 10.5399 7.67826 11.0783 6.80572 11.0783ZM42.1602 11.1243L41.4697 10.0537C41.25 9.65396 41.2656 9.2063 41.2656 9.2063V4.26766C41.3598 0.000127584 36.7142 0.367807 36.7142 0.367807C32.5845 0.367807 31.9745 3.64086 31.9745 3.64086C31.8023 4.29893 32.3029 4.31485 32.3029 4.31485L34.3209 4.52333C34.3209 4.52333 34.665 4.6035 34.7902 4.18634C34.7902 4.18634 35.0559 2.75839 36.5421 2.75839C38.1591 2.75839 38.1423 4.17176 38.1423 4.17176V5.35497C34.9145 5.46487 33.4184 6.37746 33.4184 6.37746C31.4253 7.52825 31.5507 9.81392 31.5507 9.81392C31.5507 13.5379 35.0348 13.3779 35.0348 13.3779C37.2634 13.3779 38.5817 11.7158 38.5817 11.7158C38.9742 12.4193 39.6959 13.0902 39.6959 13.0902C40.0571 13.4892 40.4337 13.1543 40.4337 13.1543L42.0658 11.7319C42.4268 11.4599 42.1602 11.1243 42.1602 11.1243ZM36.1225 11.0783C35.0742 11.0783 34.6846 10.0174 34.8586 8.9748C35.0328 7.93218 35.9375 7.11281 38.1423 7.13679V7.77069C38.2206 10.5399 36.9952 11.0783 36.1225 11.0783Z" fill="#D0D5DD"/>
  <path d="M47.7167 20.4721C47.7167 20.4721 47.5322 20.7991 47.7589 20.8722C47.7589 20.8722 48.0151 20.974 48.3345 20.6721C48.3345 20.6721 50.6639 18.5997 50.72 14.8267C50.72 14.8267 50.7372 14.3554 50.5515 14.2265C50.5515 14.2265 49.8217 13.569 47.1975 13.7691C47.1975 13.7691 44.91 13.9264 43.6612 15.0555C43.6612 15.0555 43.549 15.1554 43.549 15.2839C43.549 15.2839 43.522 15.5614 44.2085 15.4412C44.2085 15.4412 46.4958 15.1122 47.857 15.2839C47.857 15.2839 48.559 15.3696 48.7554 15.6128C48.7554 15.6128 49.0782 15.8844 48.9096 16.7845C48.9096 16.7849 48.4463 19.0716 47.7167 20.4721Z" fill="#D0D5DD"/>
  <path d="M47.2552 16.8523C47.2552 16.8523 47.5968 17.303 47.0456 17.6918C47.0456 17.6918 41.157 22.4887 31.2697 22.4887C31.2697 22.4887 21.0919 23 12.5934 15.1362C12.5934 15.1362 12.2955 14.8698 12.4804 14.6222C12.4804 14.6222 12.6458 14.3944 13.0739 14.6422C13.0739 14.6422 21.0683 19.7155 31.5678 19.7155C31.5678 19.7155 38.8656 20.0032 46.3518 16.7426C46.3518 16.7426 46.9482 16.4278 47.2552 16.8523Z" fill="#D0D5DD"/>
</svg>