<svg xmlns="http://www.w3.org/2000/svg" width="95" height="21" viewBox="0 0 95 21" fill="none">
  <g clip-path="url(#clip0_9852_2104)">
    <path d="M33.731 11.7755L33.1707 13.392H33.124C33.0307 13.0275 32.8595 12.4728 32.5794 11.8072L29.5759 4.12072H26.6348V16.3715H28.58V8.81185C28.58 8.3364 28.58 7.79756 28.5644 7.13192C28.5489 6.79911 28.5177 6.54553 28.5022 6.35535H28.5489C28.6422 6.8308 28.7512 7.17947 28.829 7.40135L32.4393 16.3398H33.8088L37.388 7.3221C37.4658 7.11607 37.5436 6.70402 37.6214 6.35535H37.6681C37.6214 7.25871 37.5903 8.06698 37.5747 8.55828V16.324H39.6444V4.08903H36.8122L33.731 11.7755ZM41.6052 7.54398H43.6283V16.324H41.6052V7.54398ZM42.6323 3.83545C42.29 3.83545 42.0098 3.96224 41.7764 4.18412C41.543 4.406 41.4185 4.69127 41.4185 5.03993C41.4185 5.37275 41.543 5.65802 41.7764 5.8799C42.0098 6.10178 42.29 6.21271 42.6323 6.21271C42.9747 6.21271 43.2703 6.08593 43.4882 5.8799C43.7216 5.65802 43.8461 5.37275 43.8461 5.03993C43.8461 4.70712 43.7216 4.42184 43.4882 4.18412C43.2859 3.96224 42.9902 3.83545 42.6323 3.83545ZM50.8023 7.46474C50.4288 7.3855 50.0397 7.33795 49.6663 7.33795C48.7481 7.33795 47.9078 7.54398 47.2075 7.95604C46.5072 8.3681 45.947 8.93864 45.5891 9.65182C45.2156 10.3808 45.0288 11.2208 45.0288 12.1876C45.0288 13.0275 45.2156 13.7724 45.5735 14.4539C45.9314 15.1195 46.4294 15.6584 47.0986 16.0229C47.7366 16.3874 48.4836 16.5776 49.3239 16.5776C50.2887 16.5776 51.1135 16.3715 51.7671 15.9912L51.7827 15.9753V14.0735L51.7049 14.1369C51.4092 14.3588 51.0668 14.549 50.7245 14.6599C50.3665 14.7867 50.0397 14.8501 49.7596 14.8501C48.9504 14.8501 48.3124 14.6124 47.8611 14.0894C47.3942 13.5822 47.1608 12.8849 47.1608 12.0132C47.1608 11.1099 47.3942 10.3967 47.8766 9.8737C48.3591 9.3507 48.9971 9.08128 49.7752 9.08128C50.4288 9.08128 51.0979 9.30315 51.7049 9.74691L51.7827 9.8103V7.79756L51.7671 7.78171C51.5025 7.67077 51.2069 7.54398 50.8023 7.46474ZM57.4783 7.40135C56.9803 7.40135 56.5135 7.55983 56.1088 7.89265C55.7665 8.17792 55.5331 8.58998 55.3308 9.08128H55.3152V7.54398H53.2922V16.324H55.3152V11.8389C55.3152 11.0782 55.4708 10.4442 55.8132 9.98464C56.1555 9.50918 56.5913 9.27146 57.1204 9.27146C57.3071 9.27146 57.4938 9.319 57.7273 9.3507C57.9451 9.41409 58.1008 9.47749 58.2097 9.55673L58.2875 9.62012V7.55983L58.2408 7.54398C58.1008 7.44889 57.8206 7.40135 57.4783 7.40135ZM62.9872 7.3538C61.571 7.3538 60.435 7.78171 59.6414 8.62167C58.8322 9.46164 58.4431 10.6186 58.4431 12.0766C58.4431 13.4396 58.8477 14.549 59.6258 15.3572C60.4039 16.1497 61.4621 16.5617 62.7849 16.5617C64.1699 16.5617 65.2748 16.1338 66.0684 15.278C66.8776 14.4222 67.2667 13.2811 67.2667 11.8706C67.2667 10.4759 66.8932 9.36655 66.1307 8.55828C65.3992 7.75001 64.3255 7.3538 62.9872 7.3538ZM64.6056 14.1052C64.2321 14.5965 63.6408 14.8342 62.9094 14.8342C62.178 14.8342 61.5866 14.5965 61.1664 14.0735C60.7463 13.5822 60.544 12.869 60.544 11.9657C60.544 11.0306 60.7618 10.3175 61.1664 9.8103C61.5866 9.30315 62.1624 9.04958 62.8938 9.04958C63.6096 9.04958 64.1699 9.28731 64.5745 9.77861C64.9791 10.2699 65.1969 10.9831 65.1969 11.9181C65.1658 12.869 64.9946 13.6139 64.6056 14.1052ZM71.7796 11.1891C71.1416 10.9197 70.7369 10.7137 70.5502 10.5393C70.3946 10.3808 70.3168 10.159 70.3168 9.8737C70.3168 9.63597 70.4102 9.39824 70.6436 9.23976C70.877 9.08128 71.1416 9.00203 71.5306 9.00203C71.873 9.00203 72.2309 9.06543 72.5732 9.16052C72.9156 9.25561 73.2268 9.39824 73.4758 9.58843L73.5536 9.65182V7.71831L73.507 7.70246C73.2735 7.60737 72.9623 7.51228 72.5888 7.43304C72.2153 7.36965 71.873 7.33795 71.5928 7.33795C70.628 7.33795 69.8344 7.57568 69.2119 8.09867C68.5894 8.58998 68.2937 9.25561 68.2937 10.0322C68.2937 10.4442 68.356 10.8088 68.4961 11.1099C68.6361 11.411 68.8384 11.6963 69.1185 11.934C69.3986 12.1559 69.8032 12.4094 70.3635 12.6472C70.8303 12.8532 71.1882 13.0117 71.4061 13.1385C71.624 13.2653 71.764 13.4079 71.873 13.5188C71.9508 13.6456 71.9975 13.8041 71.9975 14.0101C71.9975 14.5965 71.5617 14.8818 70.6747 14.8818C70.3323 14.8818 69.9744 14.8184 69.5543 14.6758C69.1341 14.5331 68.745 14.3271 68.4182 14.0894L68.3404 14.026V16.0387L68.3871 16.0546C68.6828 16.1972 69.0407 16.2923 69.4764 16.4032C69.9122 16.4825 70.3012 16.5459 70.6436 16.5459C71.6862 16.5459 72.5421 16.3082 73.149 15.7852C73.7715 15.278 74.0983 14.6282 74.0983 13.7883C74.0983 13.2019 73.9427 12.6789 73.6003 12.2827C73.149 11.9023 72.5888 11.5061 71.7796 11.1891ZM79.436 7.3538C78.0199 7.3538 76.8839 7.78171 76.0902 8.62167C75.2966 9.46164 74.892 10.6186 74.892 12.0766C74.892 13.4396 75.2966 14.549 76.0747 15.3572C76.8527 16.1497 77.9109 16.5617 79.2337 16.5617C80.6187 16.5617 81.7236 16.1338 82.5173 15.278C83.3265 14.4222 83.7155 13.2811 83.7155 11.8706C83.7155 10.4759 83.342 9.36655 82.5795 8.55828C81.8481 7.75001 80.7743 7.3538 79.436 7.3538ZM81.0389 14.1052C80.6654 14.5965 80.074 14.8342 79.3426 14.8342C78.5957 14.8342 78.0199 14.5965 77.5997 14.0735C77.1795 13.5822 76.9772 12.869 76.9772 11.9657C76.9772 11.0306 77.1951 10.3175 77.5997 9.8103C78.0199 9.30315 78.5957 9.04958 79.3271 9.04958C80.0274 9.04958 80.6031 9.28731 81.0078 9.77861C81.4124 10.2699 81.6302 10.9831 81.6302 11.9181C81.6302 12.869 81.4279 13.6139 81.0389 14.1052ZM94.531 9.23976V7.54398H92.4924V4.94484L92.4301 4.96069L90.5005 5.54708L90.4538 5.56293V7.54398H87.4037V6.43459C87.4037 5.92744 87.5281 5.53123 87.746 5.27766C87.9639 5.02408 88.2907 4.8973 88.6953 4.8973C88.9754 4.8973 89.2711 4.96069 89.5979 5.10333L89.6757 5.15087V3.36L89.629 3.34415C89.3489 3.24906 88.9754 3.18567 88.493 3.18567C87.8861 3.18567 87.357 3.3283 86.8746 3.56603C86.3921 3.83545 86.0342 4.19997 85.7697 4.69127C85.5051 5.16672 85.3651 5.70557 85.3651 6.32365V7.54398H83.9489V9.22391H85.3651V16.324H87.4037V9.23976H90.4538V13.7566C90.4538 15.6108 91.3097 16.5459 93.0215 16.5459C93.3016 16.5459 93.5973 16.4983 93.8774 16.4508C94.173 16.3874 94.3909 16.3082 94.5154 16.2448L94.531 16.2289V14.5331L94.4532 14.5965C94.3287 14.6758 94.2197 14.7392 94.033 14.7867C93.8774 14.8342 93.7373 14.8501 93.6284 14.8501C93.2238 14.8501 92.9437 14.755 92.7414 14.5173C92.5546 14.2954 92.4612 13.9309 92.4612 13.392V9.23976H94.531Z" fill="#D0D5DD"/>
    <path d="M0.552734 0H10.0921V9.71507H0.552734V0Z" fill="#D0D5DD"/>
    <path d="M11.0879 0H20.6273V9.71507H11.0879V0Z" fill="#D0D5DD"/>
    <path d="M0.552734 10.7294H10.0921V20.4444H0.552734V10.7294Z" fill="#D0D5DD"/>
    <path d="M11.0879 10.7294H20.6273V20.4444H11.0879V10.7294Z" fill="#D0D5DD"/>
  </g>
  <defs>
    <clipPath id="clip0_9852_2104">
      <rect width="93.9829" height="20.4444" fill="white" transform="translate(0.550781)"/>
    </clipPath>
  </defs>
</svg>